<svg xmlns="http://www.w3.org/2000/svg" width="130" height="150" overflow="visible"><g class="facebook-logo"><path
        d="M35.672 0h80.87v80.87c0 14.105-11.433 25.538-25.538 25.538h-80.87v-80.87C10.134 11.434 21.568 0 35.672 0z" class="cjvNk-U5G" fill="#8390c9"/><g class="U4a_noyCCJ" transform="translate(19.961 8.869) scale(1.75972)" fill="#fff"><path class="st0" d="m5.3 22.4 20.5 9.8L44 22.4 24.6 12.3z"/><path class="st0" d="M14.5 27v7s9.5 9.2 20.9 0m6.1-10v5"/><circle class="st0" cx="41.2" cy="30.4" r="1.7"/></g><path d="M12.812 146.036V127.4h4.339c.423 0 .722-.572.892-1.708.073-.547.114-1.104.114-1.671 0-.568-.041-1.125-.114-1.672-.17-1.14-.469-1.708-.892-1.708H1c-.418 0-.717.568-.887 1.708A11.919 11.919 0 0 0 0 124.02c0 .567.036 1.124.114 1.671.17 1.136.469 1.708.887 1.708h4.458v18.637c0 .495 1.223.743 3.674.743 2.45 0 3.679-.248 3.679-.743Zm20.788.707v-6.795c0-.124-1.171-.186-3.509-.186-2.337 0-3.508.108-3.508.335v6.682c0 .15 1.171.222 3.508.222 2.338 0 3.509-.088 3.509-.258Zm27.475-.041c.666 0 1.569-.047 2.71-.145 1.14-.103 1.707-.237 1.707-.413l-6.424-25.169c0-.196-1.692-.299-5.087-.299-3.39 0-5.082.103-5.082.3l-6.574 25.132c0 .078.284.18.851.315.573.14 1.45.206 2.637.206 2.229 0 3.416-.381 3.565-1.15l1.079-4.603h5.902l1.223 4.789c.176.691 1.337 1.037 3.493 1.037Zm-9.69-10.542 2.002-7.688h.222l1.672 7.688Zm29.886 10.583v-6.795c0-.124-1.172-.186-3.51-.186-2.336 0-3.508.108-3.508.335v6.682c0 .15 1.172.222 3.509.222 2.337 0 3.509-.088 3.509-.258Zm28.254-19.38c0-4.484-2.895-6.723-8.689-6.723h-8.462c-.273 0-.454.046-.542.129-.087.088-.129.268-.129.542v23.76c0 .47.135.846.408 1.13.274.284.62.428 1.042.428h8.761c2.745 0 4.856-.583 6.331-1.744 1.471-1.166 2.209-2.74 2.209-4.736 0-1.992-.408-3.53-1.228-4.618-.815-1.094-1.832-1.858-3.044-2.306 2.229-1.337 3.343-3.292 3.343-5.862Zm-10.69-.707h.778c1.063 0 1.822.196 2.28.594.46.397.687 1.026.687 1.893 0 1.584-1.187 2.374-3.56 2.374h-.186Zm0 9.241h.778c1.063 0 1.822.176 2.28.521.46.346.687.955.687 1.822 0 .867-.248 1.496-.743 1.893-.495.398-1.274.594-2.337.594h-.666Zm27.84 10.846v-6.795c0-.124-1.165-.186-3.508-.186-2.337 0-3.508.108-3.508.335v6.682c0 .15 1.171.222 3.508.222 2.343 0 3.509-.088 3.509-.258Z" class="text" fill="#8390c9"/></g></svg>